<svg xmlns="http://www.w3.org/2000/svg" viewBox="0 0 1200 900" role="img" aria-labelledby="title desc">
  <title id="title">Bread Loaves</title>
  <desc id="desc">Flat service illustration for artisan bread discovery card.</desc>
  <rect width="1200" height="900" fill="#F5F2E8"/>
  <circle cx="958" cy="156" r="96" fill="#D88B55" opacity=".2"/>
  <circle cx="198" cy="742" r="132" fill="#78975D" opacity=".12"/>
  <path d="M130 705c150 72 291 101 464 85 184-17 286-84 476-52" fill="none" stroke="#463D2E" stroke-width="18" stroke-linecap="round" opacity=".12"/>
  <g fill="none" stroke="#463D2E" stroke-linecap="round" stroke-linejoin="round">
    <path stroke-width="28" d="M341 545c0-125 105-226 259-226s259 101 259 226v83H341z" fill="#78975D" opacity=".82"/><path stroke-width="20" d="M411 545c16-80 74-133 148-151M574 545c16-80 74-133 148-151M732 545c10-48 40-87 83-113M322 628h556M424 706h352"/><circle cx="600" cy="271" r="31" fill="#D88B55" stroke="none"/>
  </g>
  <g fill="#D88B55" opacity=".92">
    <circle cx="214" cy="182" r="16"/>
    <circle cx="997" cy="697" r="13"/>
    <path d="M1017 264l19 36 37 18-37 18-19 36-18-36-37-18 37-18z"/>
  </g>
</svg>
