<svg xmlns="http://www.w3.org/2000/svg" viewBox="0 0 1200 900" role="img" aria-labelledby="title desc">
  <title id="title">Bucket Broom</title>
  <desc id="desc">Flat service illustration for cleaning discovery card.</desc>
  <rect width="1200" height="900" fill="#E9F6F1"/>
  <circle cx="958" cy="156" r="96" fill="#F5C86A" opacity=".2"/>
  <circle cx="198" cy="742" r="132" fill="#4E9F8A" opacity=".12"/>
  <path d="M130 705c150 72 291 101 464 85 184-17 286-84 476-52" fill="none" stroke="#2D5E56" stroke-width="18" stroke-linecap="round" opacity=".12"/>
  <g fill="none" stroke="#2D5E56" stroke-linecap="round" stroke-linejoin="round">
    <path stroke-width="28" d="M409 345h258l-39 316H448z" fill="#4E9F8A" opacity=".88"/><path stroke-width="20" d="M382 345h312M468 292c28-38 94-38 122 0"/><path stroke-width="28" d="M754 214l168 525"/><path stroke-width="20" d="M705 430l167-54M871 738l88-28M898 706l34 96M506 490h63"/><circle cx="790" cy="215" r="27" fill="#F5C86A" stroke="none"/>
  </g>
  <g fill="#F5C86A" opacity=".92">
    <circle cx="214" cy="182" r="16"/>
    <circle cx="997" cy="697" r="13"/>
    <path d="M1017 264l19 36 37 18-37 18-19 36-18-36-37-18 37-18z"/>
  </g>
</svg>
