<svg xmlns="http://www.w3.org/2000/svg" viewBox="0 0 1200 900" role="img" aria-labelledby="title desc">
  <title id="title">Cane Pills</title>
  <desc id="desc">Flat service illustration for elder assistance discovery card.</desc>
  <rect width="1200" height="900" fill="#F6EEF2"/>
  <circle cx="958" cy="156" r="96" fill="#8FBF9A" opacity=".2"/>
  <circle cx="198" cy="742" r="132" fill="#B66E86" opacity=".12"/>
  <path d="M130 705c150 72 291 101 464 85 184-17 286-84 476-52" fill="none" stroke="#4F3F49" stroke-width="18" stroke-linecap="round" opacity=".12"/>
  <g fill="none" stroke="#4F3F49" stroke-linecap="round" stroke-linejoin="round">
    <path stroke-width="28" d="M414 246v399c0 77-110 77-110 0" /><path stroke-width="20" d="M414 246c74 0 107 44 107 96M613 514l191-191c42-42 111-42 153 0 42 42 42 111 0 153L766 667c-42 42-111 42-153 0-42-42-42-111 0-153z"/><path stroke-width="20" d="M706 421l158 158"/><circle cx="398" cy="726" r="27" fill="#8FBF9A" stroke="none"/><circle cx="736" cy="591" r="30" fill="#B66E86" stroke="none" opacity=".8"/>
  </g>
  <g fill="#8FBF9A" opacity=".92">
    <circle cx="214" cy="182" r="16"/>
    <circle cx="997" cy="697" r="13"/>
    <path d="M1017 264l19 36 37 18-37 18-19 36-18-36-37-18 37-18z"/>
  </g>
</svg>
