<svg xmlns="http://www.w3.org/2000/svg" viewBox="0 0 1200 900" role="img" aria-labelledby="title desc">
  <title id="title">Milk Cheese</title>
  <desc id="desc">Flat service illustration for fresh dairy discovery card.</desc>
  <rect width="1200" height="900" fill="#F5F2E8"/>
  <circle cx="958" cy="156" r="96" fill="#D88B55" opacity=".2"/>
  <circle cx="198" cy="742" r="132" fill="#78975D" opacity=".12"/>
  <path d="M130 705c150 72 291 101 464 85 184-17 286-84 476-52" fill="none" stroke="#463D2E" stroke-width="18" stroke-linecap="round" opacity=".12"/>
  <g fill="none" stroke="#463D2E" stroke-linecap="round" stroke-linejoin="round">
    <path stroke-width="28" d="M350 352h202v360H350z" fill="#78975D" opacity=".82"/><path stroke-width="20" d="M389 257h124l39 95H350zM389 257v-50h124v50M350 488h202M648 532l258-107v253H648zM729 501v177M817 462v216"/><circle cx="839" cy="552" r="29" fill="#D88B55"/><circle cx="730" cy="615" r="22" fill="#D88B55"/>
  </g>
  <g fill="#D88B55" opacity=".92">
    <circle cx="214" cy="182" r="16"/>
    <circle cx="997" cy="697" r="13"/>
    <path d="M1017 264l19 36 37 18-37 18-19 36-18-36-37-18 37-18z"/>
  </g>
</svg>
