<svg xmlns="http://www.w3.org/2000/svg" viewBox="0 0 1200 900" role="img" aria-labelledby="title desc">
  <title id="title">Watering Plant</title>
  <desc id="desc">Flat service illustration for gardening discovery card.</desc>
  <rect width="1200" height="900" fill="#F2EFE9"/>
  <circle cx="958" cy="156" r="96" fill="#E09F4F" opacity=".2"/>
  <circle cx="198" cy="742" r="132" fill="#8E6B4F" opacity=".12"/>
  <path d="M130 705c150 72 291 101 464 85 184-17 286-84 476-52" fill="none" stroke="#40352D" stroke-width="18" stroke-linecap="round" opacity=".12"/>
  <g fill="none" stroke="#40352D" stroke-linecap="round" stroke-linejoin="round">
    <path stroke-width="28" d="M331 560c147 28 264 13 354-80l59 129c-118 82-247 102-385 64z" fill="#8E6B4F" opacity=".82"/><path stroke-width="20" d="M697 499l181-92 54 80-188 122M878 407l55-31M417 704c57-119 109-215 239-286M574 488c-85-35-140-25-186 34 82 34 142 24 186-34zM646 420c12-86 48-136 120-150-11 87-47 139-120 150z"/><circle cx="852" cy="573" r="12" fill="#E09F4F" stroke="none"/><circle cx="913" cy="560" r="12" fill="#E09F4F" stroke="none"/>
  </g>
  <g fill="#E09F4F" opacity=".92">
    <circle cx="214" cy="182" r="16"/>
    <circle cx="997" cy="697" r="13"/>
    <path d="M1017 264l19 36 37 18-37 18-19 36-18-36-37-18 37-18z"/>
  </g>
</svg>
