<svg xmlns="http://www.w3.org/2000/svg" viewBox="0 0 1200 900" role="img" aria-labelledby="title desc">
  <title id="title">Drill Wall</title>
  <desc id="desc">Flat service illustration for handyman discovery card.</desc>
  <rect width="1200" height="900" fill="#F2EFE9"/>
  <circle cx="958" cy="156" r="96" fill="#E09F4F" opacity=".2"/>
  <circle cx="198" cy="742" r="132" fill="#8E6B4F" opacity=".12"/>
  <path d="M130 705c150 72 291 101 464 85 184-17 286-84 476-52" fill="none" stroke="#40352D" stroke-width="18" stroke-linecap="round" opacity=".12"/>
  <g fill="none" stroke="#40352D" stroke-linecap="round" stroke-linejoin="round">
    <path stroke-width="28" d="M342 385h308l95 83-95 83H342z" fill="#8E6B4F" opacity=".83"/><path stroke-width="20" d="M650 468h182M342 551l59 167h126l-49-167M832 468h73M905 419v98M426 385v166M506 385v166"/><circle cx="577" cy="468" r="35" fill="#E09F4F" stroke="none"/><path stroke-width="20" d="M907 614h94M922 682h66M936 750h39"/>
  </g>
  <g fill="#E09F4F" opacity=".92">
    <circle cx="214" cy="182" r="16"/>
    <circle cx="997" cy="697" r="13"/>
    <path d="M1017 264l19 36 37 18-37 18-19 36-18-36-37-18 37-18z"/>
  </g>
</svg>
