<svg xmlns="http://www.w3.org/2000/svg" viewBox="0 0 1200 900" role="img" aria-labelledby="title desc">
  <title id="title">Spray Home</title>
  <desc id="desc">Flat service illustration for home cleaning discovery card.</desc>
  <rect width="1200" height="900" fill="#E9F6F1"/>
  <circle cx="958" cy="156" r="96" fill="#F5C86A" opacity=".2"/>
  <circle cx="198" cy="742" r="132" fill="#4E9F8A" opacity=".12"/>
  <path d="M130 705c150 72 291 101 464 85 184-17 286-84 476-52" fill="none" stroke="#2D5E56" stroke-width="18" stroke-linecap="round" opacity=".12"/>
  <g fill="none" stroke="#2D5E56" stroke-linecap="round" stroke-linejoin="round">
    <path stroke-width="20" d="M356 513l244-195 244 195M421 498v213h358V498"/><path stroke-width="28" d="M504 584h192v127H504z" fill="#4E9F8A" opacity=".75"/><path stroke-width="20" d="M811 269h95v143h-95zM906 306h45M832 412l-44 168"/><path stroke-width="20" d="M788 580h130l-30 106H757zM859 269v-45"/><circle cx="557" cy="476" r="20" fill="#F5C86A" stroke="none"/>
  </g>
  <g fill="#F5C86A" opacity=".92">
    <circle cx="214" cy="182" r="16"/>
    <circle cx="997" cy="697" r="13"/>
    <path d="M1017 264l19 36 37 18-37 18-19 36-18-36-37-18 37-18z"/>
  </g>
</svg>
