<svg xmlns="http://www.w3.org/2000/svg" viewBox="0 0 1200 900" role="img" aria-labelledby="title desc">
  <title id="title">Sofa Dolly</title>
  <desc id="desc">Flat service illustration for large items discovery card.</desc>
  <rect width="1200" height="900" fill="#EEF3F8"/>
  <circle cx="958" cy="156" r="96" fill="#E8B45F" opacity=".2"/>
  <circle cx="198" cy="742" r="132" fill="#527EA3" opacity=".12"/>
  <path d="M130 705c150 72 291 101 464 85 184-17 286-84 476-52" fill="none" stroke="#30475C" stroke-width="18" stroke-linecap="round" opacity=".12"/>
  <g fill="none" stroke="#30475C" stroke-linecap="round" stroke-linejoin="round">
    <path stroke-width="28" d="M330 472h539v168H330z" fill="#527EA3" opacity=".82"/><path stroke-width="28" d="M394 379h412c35 0 63 28 63 63v30H330v-30c0-35 29-63 64-63z" fill="#527EA3" opacity=".68"/><path stroke-width="20" d="M267 343l86 337h512M418 680h389"/><circle cx="442" cy="715" r="41" fill="#E8B45F"/><circle cx="784" cy="715" r="41" fill="#E8B45F"/>
  </g>
  <g fill="#E8B45F" opacity=".92">
    <circle cx="214" cy="182" r="16"/>
    <circle cx="997" cy="697" r="13"/>
    <path d="M1017 264l19 36 37 18-37 18-19 36-18-36-37-18 37-18z"/>
  </g>
</svg>
