<svg xmlns="http://www.w3.org/2000/svg" viewBox="0 0 1200 900" role="img" aria-labelledby="title desc">
  <title id="title">Massage Table</title>
  <desc id="desc">Flat service illustration for massage discovery card.</desc>
  <rect width="1200" height="900" fill="#F6EEF2"/>
  <circle cx="958" cy="156" r="96" fill="#8FBF9A" opacity=".2"/>
  <circle cx="198" cy="742" r="132" fill="#B66E86" opacity=".12"/>
  <path d="M130 705c150 72 291 101 464 85 184-17 286-84 476-52" fill="none" stroke="#4F3F49" stroke-width="18" stroke-linecap="round" opacity=".12"/>
  <g fill="none" stroke="#4F3F49" stroke-linecap="round" stroke-linejoin="round">
    <path stroke-width="28" d="M304 486h592v97H304z" fill="#B66E86" opacity=".82"/><circle cx="793" cy="390" r="55" fill="#8FBF9A"/><path stroke-width="20" d="M295 583l-43 151M905 583l43 151M407 583l43 151M793 583l-43 151M385 486c89-90 222-103 408-96M382 390c-38 0-69 31-69 69v27"/><path stroke-width="20" d="M482 299c72-36 159-36 236 0"/>
  </g>
  <g fill="#8FBF9A" opacity=".92">
    <circle cx="214" cy="182" r="16"/>
    <circle cx="997" cy="697" r="13"/>
    <path d="M1017 264l19 36 37 18-37 18-19 36-18-36-37-18 37-18z"/>
  </g>
</svg>
