<svg xmlns="http://www.w3.org/2000/svg" viewBox="0 0 1200 900" role="img" aria-labelledby="title desc">
  <title id="title">Butcher Cuts</title>
  <desc id="desc">Flat service illustration for organic butcher discovery card.</desc>
  <rect width="1200" height="900" fill="#F5F2E8"/>
  <circle cx="958" cy="156" r="96" fill="#D88B55" opacity=".2"/>
  <circle cx="198" cy="742" r="132" fill="#78975D" opacity=".12"/>
  <path d="M130 705c150 72 291 101 464 85 184-17 286-84 476-52" fill="none" stroke="#463D2E" stroke-width="18" stroke-linecap="round" opacity=".12"/>
  <g fill="none" stroke="#463D2E" stroke-linecap="round" stroke-linejoin="round">
    <path stroke-width="28" d="M346 478c42-123 176-202 317-170 145 34 228 151 191 276-37 126-182 179-332 141-140-36-219-122-176-247z" fill="#78975D" opacity=".82"/><path stroke-width="20" d="M471 458c42-69 128-98 209-69M513 633c106 43 206 18 265-58M760 299l102-102M829 256l75 75M395 329l-88-88M342 277l-74 74"/><circle cx="649" cy="515" r="46" fill="#D88B55" stroke="none"/>
  </g>
  <g fill="#D88B55" opacity=".92">
    <circle cx="214" cy="182" r="16"/>
    <circle cx="997" cy="697" r="13"/>
    <path d="M1017 264l19 36 37 18-37 18-19 36-18-36-37-18 37-18z"/>
  </g>
</svg>
