<svg xmlns="http://www.w3.org/2000/svg" viewBox="0 0 1200 900" role="img" aria-labelledby="title desc">
  <title id="title">Dumbbell Mat</title>
  <desc id="desc">Flat service illustration for personal trainer discovery card.</desc>
  <rect width="1200" height="900" fill="#F6EEF2"/>
  <circle cx="958" cy="156" r="96" fill="#8FBF9A" opacity=".2"/>
  <circle cx="198" cy="742" r="132" fill="#B66E86" opacity=".12"/>
  <path d="M130 705c150 72 291 101 464 85 184-17 286-84 476-52" fill="none" stroke="#4F3F49" stroke-width="18" stroke-linecap="round" opacity=".12"/>
  <g fill="none" stroke="#4F3F49" stroke-linecap="round" stroke-linejoin="round">
    <rect x="315" y="602" width="570" height="102" rx="51" fill="#B66E86" opacity=".82" stroke-width="28"/><path stroke-width="28" d="M407 381h386"/><path stroke-width="20" d="M326 312v138M407 296v170M793 296v170M874 312v138M407 381h386M515 247l58 82M685 329l58-82M600 329v172"/><circle cx="600" cy="527" r="37" fill="#8FBF9A" stroke="none"/>
  </g>
  <g fill="#8FBF9A" opacity=".92">
    <circle cx="214" cy="182" r="16"/>
    <circle cx="997" cy="697" r="13"/>
    <path d="M1017 264l19 36 37 18-37 18-19 36-18-36-37-18 37-18z"/>
  </g>
</svg>
