<svg xmlns="http://www.w3.org/2000/svg" viewBox="0 0 1200 900" role="img" aria-labelledby="title desc">
  <title id="title">Needle Thread</title>
  <desc id="desc">Flat service illustration for tailoring discovery card.</desc>
  <rect width="1200" height="900" fill="#F2EFE9"/>
  <circle cx="958" cy="156" r="96" fill="#E09F4F" opacity=".2"/>
  <circle cx="198" cy="742" r="132" fill="#8E6B4F" opacity=".12"/>
  <path d="M130 705c150 72 291 101 464 85 184-17 286-84 476-52" fill="none" stroke="#40352D" stroke-width="18" stroke-linecap="round" opacity=".12"/>
  <g fill="none" stroke="#40352D" stroke-linecap="round" stroke-linejoin="round">
    <path stroke-width="20" d="M730 197L471 711M744 211c34 34 58 54 84 80-28 45-74 34-112-4-38-38-49-84-4-112 11 12 21 23 32 36zM399 344c-122 77-106 245 55 244 117-1 153-115 63-149-72-27-136 38-92 105"/><path stroke-width="28" d="M626 539c66 7 128 33 185 76" /><circle cx="780" cy="252" r="24" fill="#E09F4F" stroke="none"/><path stroke-width="20" d="M331 720h298"/>
  </g>
  <g fill="#E09F4F" opacity=".92">
    <circle cx="214" cy="182" r="16"/>
    <circle cx="997" cy="697" r="13"/>
    <path d="M1017 264l19 36 37 18-37 18-19 36-18-36-37-18 37-18z"/>
  </g>
</svg>
