<svg xmlns="http://www.w3.org/2000/svg" viewBox="0 0 1200 900" role="img" aria-labelledby="title desc">
  <title id="title">Heart Hands</title>
  <desc id="desc">Flat service illustration for wellness discovery card.</desc>
  <rect width="1200" height="900" fill="#F6EEF2"/>
  <circle cx="958" cy="156" r="96" fill="#8FBF9A" opacity=".2"/>
  <circle cx="198" cy="742" r="132" fill="#B66E86" opacity=".12"/>
  <path d="M130 705c150 72 291 101 464 85 184-17 286-84 476-52" fill="none" stroke="#4F3F49" stroke-width="18" stroke-linecap="round" opacity=".12"/>
  <g fill="none" stroke="#4F3F49" stroke-linecap="round" stroke-linejoin="round">
    <path stroke-width="28" d="M600 361c-44-79-172-78-207 22-39 113 99 204 207 300 108-96 246-187 207-300-35-100-163-101-207-22z" fill="#B66E86" opacity=".82"/><path stroke-width="20" d="M318 613c88 45 153 72 282 72M882 613c-88 45-153 72-282 72M408 640c-41 12-73 46-91 86M792 640c41 12 73 46 91 86"/><circle cx="600" cy="521" r="30" fill="#8FBF9A" stroke="none"/>
  </g>
  <g fill="#8FBF9A" opacity=".92">
    <circle cx="214" cy="182" r="16"/>
    <circle cx="997" cy="697" r="13"/>
    <path d="M1017 264l19 36 37 18-37 18-19 36-18-36-37-18 37-18z"/>
  </g>
</svg>
